<?xml version="1.0" encoding="iso-8859-1"?>
<!-- Generator: Adobe Illustrator 19.0.0, SVG Export Plug-In . SVG Version: 6.00 Build 0)  -->
<svg version="1.1" id="Layer_1" xmlns="http://www.w3.org/2000/svg" xmlns:xlink="http://www.w3.org/1999/xlink" x="0px" y="0px"
	 viewBox="0 0 480 480" style="enable-background:new 0 0 480 480;" xml:space="preserve">
<path id="SVGCleanerId_0" style="fill:#4D4D4D;" d="M440,480H40c-22.056,0-40-17.944-40-40V256c0-4.416,3.584-8,8-8h464
	c4.416,0,8,3.584,8,8v184C480,462.056,462.056,480,440,480z M16,264v176c0,13.232,10.768,24,24,24h400c13.232,0,24-10.768,24-24V264
	H16z"/>
<path style="fill:#6FA0E3;" d="M440,472H40c-17.672,0-32-14.328-32-32V256h464v184C472,457.672,457.672,472,440,472z"/>
<g>
	<path id="SVGCleanerId_0_1_" style="fill:#4D4D4D;" d="M440,480H40c-22.056,0-40-17.944-40-40V256c0-4.416,3.584-8,8-8h464
		c4.416,0,8,3.584,8,8v184C480,462.056,462.056,480,440,480z M16,264v176c0,13.232,10.768,24,24,24h400c13.232,0,24-10.768,24-24
		V264H16z"/>
</g>
<path style="fill:#6FA0E3;" d="M472,256l-145,48H156L8,256V136c0-17.672,14.328-32,32-32h400c17.672,0,32,14.328,32,32V256z"/>
<path style="fill:#A9C6EE;" d="M472,256l-145,48H156L8,256V136c0-17.672,14.328-32,32-32h400c17.672,0,32,14.328,32,32V256z"/>
<path style="fill:#4D4D4D;" d="M327,312H156c-0.84,0-1.672-0.136-2.472-0.392l-148-48C2.232,262.536,0,259.472,0,256V136
	c0-22.056,17.944-40,40-40h400c22.056,0,40,17.944,40,40v120c0,3.448-2.208,6.512-5.488,7.592l-145,48
	C328.696,311.864,327.848,312,327,312z M157.264,296h168.44L464,250.224V136c0-13.232-10.768-24-24-24H40c-13.232,0-24,10.768-24,24
	v114.184L157.264,296z M472,256h0.08H472z"/>
<path style="fill:#FFFFFF;" d="M272,407.504l-30.744,16l-33.256-16V272c0-8.84,7.16-16,16-16h32c8.84,0,16,7.16,16,16V407.504z"/>
<path style="fill:#4D4D4D;" d="M241.256,431.504c-1.184,0-2.368-0.264-3.472-0.792l-33.256-16c-2.768-1.336-4.528-4.136-4.528-7.208
	V272c0-13.232,10.768-24,24-24h32c13.232,0,24,10.768,24,24v135.504c0,2.984-1.664,5.72-4.312,7.096l-30.744,16
	C243.792,431.2,242.52,431.504,241.256,431.504z M216,402.472l25.112,12.08L264,402.648V272c0-4.408-3.592-8-8-8h-32
	c-4.408,0-8,3.592-8,8V402.472z M272,407.504h0.08H272z"/>
<path style="fill:#6FA0E3;" d="M272,344h-64c-8.84,0-16-7.16-16-16v-8c0-8.84,7.16-16,16-16h64c8.84,0,16,7.16,16,16v8
	C288,336.84,280.84,344,272,344z"/>
<g>
	<path style="fill:#4D4D4D;" d="M272,296h-64c-13.232,0-24,10.768-24,24v8c0,13.232,10.768,24,24,24h24v8c0,4.416,3.584,8,8,8
		c4.416,0,8-3.584,8-8v-8h24c13.232,0,24-10.768,24-24v-8C296,306.768,285.232,296,272,296z M280,328c0,4.408-3.592,8-8,8h-24v-8
		c0-4.416-3.584-8-8-8s-8,3.584-8,8v8h-24c-4.408,0-8-3.592-8-8v-8c0-4.408,3.592-8,8-8h64c4.408,0,8,3.592,8,8V328z"/>
	<path style="fill:#4D4D4D;" d="M288,208h-88c-4.416,0-8-3.584-8-8s3.584-8,8-8h88c4.416,0,8,3.584,8,8S292.416,208,288,208z"/>
	<path style="fill:#4D4D4D;" d="M272,176h-56c-4.416,0-8-3.584-8-8s3.584-8,8-8h56c4.416,0,8,3.584,8,8S276.416,176,272,176z"/>
</g>
<g>
	<circle style="fill:#FFFFFF;" cx="416" cy="410.56" r="15"/>
	<circle style="fill:#FFFFFF;" cx="352" cy="410.56" r="15"/>
</g>
<g>
	<path style="fill:#4D4D4D;" d="M416,433.544c-12.68,0-23-10.32-23-23s10.32-23,23-23s23,10.32,23,23S428.68,433.544,416,433.544z
		 M416,403.544c-3.856,0-7,3.144-7,7s3.144,7,7,7s7-3.144,7-7S419.856,403.544,416,403.544z"/>
	<path style="fill:#4D4D4D;" d="M352,433.544c-12.68,0-23-10.32-23-23s10.32-23,23-23s23,10.32,23,23S364.68,433.544,352,433.544z
		 M352,403.544c-3.856,0-7,3.144-7,7s3.144,7,7,7s7-3.144,7-7S355.856,403.544,352,403.544z"/>
</g>
<g>
	<rect x="152" y="8" style="fill:#FFFFFF;" width="176" height="48"/>
	<path style="fill:#FFFFFF;" d="M152,104h-40V24c0-8.84,7.16-16,16-16h24V104z"/>
	<path style="fill:#FFFFFF;" d="M368,104h-40V8h24c8.84,0,16,7.16,16,16V104z"/>
</g>
<path style="fill:#4D4D4D;" d="M112,352H56c-4.416,0-8-3.584-8-8s3.584-8,8-8h56c4.416,0,8,3.584,8,8S116.416,352,112,352z"/>
<rect x="216" y="8" style="fill:#6FA0E3;" width="48" height="48"/>
<path style="fill:#4D4D4D;" d="M352,0h-24h-64h-48h-64h-24c-13.232,0-24,10.768-24,24v80c0,4.416,3.584,8,8,8h40
	c4.416,0,8-3.584,8-8V64h56h48h56v40c0,4.416,3.584,8,8,8h40c4.416,0,8-3.584,8-8V24C376,10.768,365.232,0,352,0z M144,96h-24V24
	c0-4.408,3.592-8,8-8h16v40V96z M160,16h48v32h-48V16z M224,48V16h32v32H224z M272,48V16h48v32H272z M360,96h-24V56V16h16
	c4.408,0,8,3.592,8,8V96z"/>
<g>
</g>
<g>
</g>
<g>
</g>
<g>
</g>
<g>
</g>
<g>
</g>
<g>
</g>
<g>
</g>
<g>
</g>
<g>
</g>
<g>
</g>
<g>
</g>
<g>
</g>
<g>
</g>
<g>
</g>
</svg>
