<?xml version="1.0" encoding="iso-8859-1"?>
<!-- Generator: Adobe Illustrator 19.0.0, SVG Export Plug-In . SVG Version: 6.00 Build 0)  -->
<svg version="1.1" id="Capa_1" xmlns="http://www.w3.org/2000/svg" xmlns:xlink="http://www.w3.org/1999/xlink" x="0px" y="0px"
	 viewBox="0 0 512 512" style="enable-background:new 0 0 512 512;" xml:space="preserve">
<path style="fill:#F2F2F2;" d="M28.267,75.733l406.4,406.4l61.867-61.867c8.533-8.533,8.533-21.333,0-29.867L121.067,13.867
	c-8.533-8.533-21.333-8.533-29.867,0L28.267,75.733z"/>
<path style="fill:#E4EAEF;" d="M13.333,121.6l376.533,376.533c8.533,8.533,21.333,8.533,29.867,0l14.933-14.933L28.267,75.733
	l-14.933,16C4.8,100.267,4.8,113.067,13.333,121.6z"/>
<g>
	<path style="fill:#CDD6E0;" d="M143.467,36.267L106.133,73.6c-2.133,2.133-2.133,6.4,0,9.6c2.133,2.133,6.4,2.133,9.6,0
		l37.333-37.333L143.467,36.267z"/>
	<path style="fill:#CDD6E0;" d="M184,76.8l-24.533,23.467c-2.133,2.133-2.133,6.4,0,9.6c2.133,2.133,6.4,2.133,9.6,0l23.467-24.533
		L184,76.8z"/>
	<path style="fill:#CDD6E0;" d="M224.533,117.333L187.2,154.667c-2.133,2.133-2.133,6.4,0,9.6c2.133,2.133,6.4,2.133,9.6,0
		l37.333-37.333L224.533,117.333z"/>
	<path style="fill:#CDD6E0;" d="M264,156.8l-23.467,24.533c-2.133,2.133-2.133,6.4,0,9.6c2.133,2.133,6.4,2.133,9.6,0l23.467-23.467
		L264,156.8z"/>
	<path style="fill:#CDD6E0;" d="M304.533,197.333L267.2,234.667c-2.133,2.133-2.133,6.4,0,9.6c2.133,2.133,6.4,2.133,9.6,0
		l37.333-37.333L304.533,197.333z"/>
	<path style="fill:#CDD6E0;" d="M345.067,237.867L321.6,261.333c-2.133,2.133-2.133,6.4,0,9.6c2.133,2.133,6.4,2.133,9.6,0
		l23.467-23.467L345.067,237.867z"/>
	<path style="fill:#CDD6E0;" d="M385.6,278.4l-37.333,37.333c-2.133,2.133-2.133,6.4,0,9.6c2.133,2.133,6.4,2.133,9.6,0L395.2,288
		L385.6,278.4z"/>
	<path style="fill:#CDD6E0;" d="M426.133,318.933L402.667,342.4c-2.133,2.133-2.133,6.4,0,9.6c2.133,2.133,6.4,2.133,9.6,0
		l23.467-23.467L426.133,318.933z"/>
	<path style="fill:#CDD6E0;" d="M465.6,358.4l-37.333,37.333c-2.133,2.133-2.133,6.4,0,9.6c2.133,2.133,6.4,2.133,9.6,0L475.2,368
		L465.6,358.4z"/>
</g>
<g>
	<polygon style="fill:#89D6F7;" points="310.933,90.667 307.733,93.867 16.533,386.133 16.533,387.2 16.533,388.267 51.733,423.467 
		347.2,128 	"/>
	<polygon style="fill:#89D6F7;" points="381.986,163.01 86.933,458.666 123.2,496 124.267,496 125.333,494.933 420.8,200.533 	"/>
</g>
<rect x="7.652" y="267.993" transform="matrix(-0.7071 0.7071 -0.7071 -0.7071 578.4608 347.5782)" style="fill:#55BFE9;" width="419.186" height="51.2"/>
<path style="fill:#F2705B;" d="M452.8,167.467L344,58.667L396.267,6.4c8.533-8.533,23.467-8.533,32,0l76.8,76.8
	c8.533,8.533,8.533,23.467,0,32L452.8,167.467z"/>
<polygon style="fill:#F2F2F2;" points="418.159,203.362 307.733,93.867 344,58.667 452.8,167.467 "/>
<path style="fill:#FFD05C;" d="M124.267,494.933L0.533,512l16-124.8c9.6-2.133,20.267,1.067,27.733,8.533
	c7.466,7.466,10.667,18.133,7.467,27.733c9.6-2.133,20.267,0,27.733,7.467c7.466,7.467,10.667,18.133,7.467,27.733
	c9.6-2.133,20.267,0,27.733,7.467C123.2,475.733,126.4,485.333,124.267,494.933z"/>
<path style="fill:#41596B;" d="M46.368,505.737L0.533,512l6.156-47.257c8.533,3.2,17.311,8.857,24.777,16.324
	C37.867,488.533,43.168,497.204,46.368,505.737z"/>
<g>
</g>
<g>
</g>
<g>
</g>
<g>
</g>
<g>
</g>
<g>
</g>
<g>
</g>
<g>
</g>
<g>
</g>
<g>
</g>
<g>
</g>
<g>
</g>
<g>
</g>
<g>
</g>
<g>
</g>
</svg>
