<?xml version="1.0" encoding="iso-8859-1"?>
<!-- Generator: Adobe Illustrator 19.0.0, SVG Export Plug-In . SVG Version: 6.00 Build 0)  -->
<svg version="1.1" id="Layer_1" xmlns="http://www.w3.org/2000/svg" xmlns:xlink="http://www.w3.org/1999/xlink" x="0px" y="0px"
	 viewBox="0 0 392.663 392.663" style="enable-background:new 0 0 392.663 392.663;" xml:space="preserve">
<path style="fill:#FFFFFF;" d="M21.786,284.251h348.962V31.612c0-5.301-4.331-9.632-9.632-9.632H31.547
	c-5.301,0-9.632,4.331-9.632,9.632"/>
<polyline style="fill:#56ACE0;" points="43.572,43.636 348.962,43.636 348.962,262.4 43.572,262.4 "/>
<g>
	<path style="fill:#FFC10D;" d="M21.786,306.036v55.143c0,5.301,4.331,9.632,9.632,9.632h329.568c5.301,0,9.632-4.331,9.632-9.632
		v-55.079H21.786V306.036z"/>
	<polygon style="fill:#FFC10D;" points="226.198,153.083 160.194,98.457 160.194,207.709 	"/>
</g>
<g>
	<path style="fill:#194F82;" d="M360.986,0.065H31.547C14.158,0.065,0,14.222,0,31.612V361.18c0,17.325,14.158,31.418,31.547,31.418
		h329.568c17.39,0,31.547-14.158,31.547-31.547V31.612C392.533,14.222,378.376,0.065,360.986,0.065z M370.747,361.051
		c0,5.301-4.331,9.632-9.632,9.632H31.547c-5.301,0-9.632-4.331-9.632-9.632v-55.014h348.897v55.014H370.747z M370.747,284.251
		H21.786v-85.657h24.63c6.012,0,10.925-4.848,10.925-10.925c0-6.012-4.848-10.925-10.925-10.925h-24.63V161.81h42.343
		c6.012,0,10.925-4.848,10.925-10.925c0-6.012-4.848-10.925-10.925-10.925H21.786V31.612c0-5.301,4.331-9.632,9.632-9.632h329.568
		c5.301,0,9.632,4.331,9.632,9.632v252.638H370.747z"/>
	<path style="fill:#194F82;" d="M58.053,349.35h21.463v5.689c0,6.012,4.913,10.925,10.925,10.925
		c6.012,0,10.925-4.848,10.925-10.925v-5.689h233.18c6.012,0,10.925-4.849,10.925-10.925c0-6.012-4.848-10.925-10.925-10.925
		H101.301v-5.818c0-6.012-4.848-10.925-10.925-10.925c-6.012,0-10.925,4.848-10.925,10.925v5.818H58.053
		c-6.012,0-10.925,4.848-10.925,10.925C47.127,344.436,51.911,349.35,58.053,349.35z"/>
	<path style="fill:#194F82;" d="M156.251,66.844c-7.111-5.883-17.842-0.84-17.842,8.404v155.604c0,9.18,10.731,14.287,17.842,8.404
		l93.931-77.834c5.236-4.331,5.236-12.412,0-16.743L156.251,66.844z M160.194,207.709V98.457l66.004,54.626L160.194,207.709z"/>
</g>
<g>
</g>
<g>
</g>
<g>
</g>
<g>
</g>
<g>
</g>
<g>
</g>
<g>
</g>
<g>
</g>
<g>
</g>
<g>
</g>
<g>
</g>
<g>
</g>
<g>
</g>
<g>
</g>
<g>
</g>
</svg>
